{
    "asset" : {
        "generator" : "Khronos glTF Blender I/O v1.3.48",
        "version" : "2.0"
    },
    "scene" : 0,
    "scenes" : [
        {
            "name" : "Scene",
            "nodes" : [
                20
            ]
        }
    ],
    "nodes" : [
        {
            "name" : "Head",
            "rotation" : [
                -0.0005472816992551088,
                -0.9993371963500977,
                -0.03353196755051613,
                0.014157756231725216
            ],
            "scale" : [
                0.9999999403953552,
                1.0000004768371582,
                1.0000001192092896
            ],
            "translation" : [
                1.4552645546950238e-11,
                0.09227190166711807,
                -2.0708587622486618e-10
            ]
        },
        {
            "children" : [
                0
            ],
            "name" : "Neck",
            "rotation" : [
                0.12416307628154755,
                -0.01409362442791462,
                -0.0011919806711375713,
                0.9921610355377197
            ],
            "scale" : [
                0.9999999403953552,
                1,
                0.9999998807907104
            ],
            "translation" : [
                -0.00025740088312886655,
                0.456668496131897,
                0.01073532272130251
            ]
        },
        {
            "name" : "Hand.L",
            "rotation" : [
                -0.001877588452771306,
                -0.006440872326493263,
                -0.025963829830288887,
                0.9996404051780701
            ],
            "scale" : [
                1.0000001192092896,
                0.9999999403953552,
                1
            ],
            "translation" : [
                -2.4292717171192635e-07,
                0.5331290364265442,
                -1.536414195868474e-08
            ]
        },
        {
            "children" : [
                2
            ],
            "name" : "ForeArm.L",
            "rotation" : [
                0.030243538320064545,
                -0.03946521133184433,
                -0.01457669772207737,
                0.9986567497253418
            ],
            "scale" : [
                1,
                1,
                0.9999999403953552
            ],
            "translation" : [
                -2.5833327299551456e-07,
                0.49842074513435364,
                4.841599476890224e-08
            ]
        },
        {
            "children" : [
                3
            ],
            "name" : "Arm.L",
            "rotation" : [
                -0.026893841102719307,
                -0.4787047803401947,
                -0.039271142333745956,
                0.8766847252845764
            ],
            "scale" : [
                1,
                1.0000001192092896,
                0.9999999403953552
            ],
            "translation" : [
                -3.725290298461914e-09,
                0.2000299096107483,
                1.955777406692505e-08
            ]
        },
        {
            "children" : [
                4
            ],
            "name" : "Shoulder.L",
            "rotation" : [
                -0.5692688226699829,
                -0.5187906622886658,
                -0.45252639055252075,
                0.44945433735847473
            ],
            "scale" : [
                1,
                0.9999999403953552,
                0.9999998807907104
            ],
            "translation" : [
                0.06289789080619812,
                0.3745976984500885,
                -0.002295382786542177
            ]
        },
        {
            "name" : "Hand.R",
            "rotation" : [
                -0.0332043282687664,
                0.004546043463051319,
                0.015518873929977417,
                0.9993177652359009
            ],
            "scale" : [
                0.9999999403953552,
                0.9999998211860657,
                1
            ],
            "translation" : [
                1.0668674832459146e-09,
                0.5512757897377014,
                4.526759198597574e-07
            ]
        },
        {
            "children" : [
                6
            ],
            "name" : "ForeArm.R",
            "rotation" : [
                0.0164395309984684,
                -0.0002852554025594145,
                0.003015220398083329,
                0.9998602867126465
            ],
            "scale" : [
                1,
                0.9999999403953552,
                1
            ],
            "translation" : [
                2.435185941784823e-10,
                0.46945467591285706,
                3.03365013110124e-08
            ]
        },
        {
            "children" : [
                7
            ],
            "name" : "Arm.R",
            "rotation" : [
                0.018982307985424995,
                -0.15899686515331268,
                0.01219956949353218,
                0.9870212078094482
            ],
            "scale" : [
                1,
                0.9999998211860657,
                1
            ],
            "translation" : [
                2.0550110946260247e-08,
                0.20061169564723969,
                1.1808833022541876e-07
            ]
        },
        {
            "children" : [
                8
            ],
            "name" : "Shoulder.R",
            "rotation" : [
                -0.5544151663780212,
                0.5031334757804871,
                0.4705209732055664,
                0.4670017957687378
            ],
            "scale" : [
                0.9999998807907104,
                0.9999997615814209,
                1
            ],
            "translation" : [
                -0.06974752247333527,
                0.37438827753067017,
                -0.0019260483095422387
            ]
        },
        {
            "children" : [
                1,
                5,
                9
            ],
            "name" : "Chest",
            "rotation" : [
                -0.08571651577949524,
                0.00018366954463999718,
                -0.000766472308896482,
                0.9963192343711853
            ],
            "scale" : [
                1,
                0.9999998807907104,
                0.9999998807907104
            ],
            "translation" : [
                4.0563435943496984e-10,
                0.2292516976594925,
                6.152964804329031e-09
            ]
        },
        {
            "children" : [
                10
            ],
            "name" : "Spine",
            "rotation" : [
                0.00944356620311737,
                -0.00013039838813710958,
                -0.0010395696153864264,
                0.999954879283905
            ],
            "scale" : [
                1.0000001192092896,
                1.0000001192092896,
                1
            ],
            "translation" : [
                0.0008246515062637627,
                0.43091729283332825,
                0.10057054460048676
            ]
        },
        {
            "name" : "Foot.L",
            "rotation" : [
                -0.0029245996847748756,
                0.7088043093681335,
                -0.6917502284049988,
                0.13809290528297424
            ],
            "scale" : [
                0.9999998807907104,
                0.9999997615814209,
                0.9999999403953552
            ],
            "translation" : [
                -3.4286763650470675e-08,
                0.9397810101509094,
                -3.077745347468408e-08
            ]
        },
        {
            "children" : [
                12
            ],
            "name" : "Leg.L",
            "rotation" : [
                0.04504597932100296,
                0.00796755962073803,
                0.026066968217492104,
                0.9986129999160767
            ],
            "translation" : [
                5.8696098648169936e-08,
                0.7393032312393188,
                -1.8654482403235306e-09
            ]
        },
        {
            "children" : [
                13
            ],
            "name" : "Thigh.L",
            "rotation" : [
                -0.9954329133033752,
                -0.07048216462135315,
                -0.056031543761491776,
                0.03171832114458084
            ],
            "scale" : [
                1.0000029802322388,
                1.000000238418579,
                1.0000003576278687
            ],
            "translation" : [
                0.20205159485340118,
                -0.10287116467952728,
                -0.0036545589100569487
            ]
        },
        {
            "name" : "Foot.R",
            "rotation" : [
                -0.6860247254371643,
                0.07091271132230759,
                0.064695805311203,
                0.7212184071540833
            ],
            "scale" : [
                0.9999999403953552,
                1,
                0.9999999403953552
            ],
            "translation" : [
                2.143761257400456e-08,
                0.935131311416626,
                -5.331103558603445e-09
            ]
        },
        {
            "children" : [
                15
            ],
            "name" : "Leg.R",
            "rotation" : [
                0.04695578292012215,
                0.007081781513988972,
                -0.036145035177469254,
                0.9982177019119263
            ],
            "translation" : [
                -1.862645149230957e-09,
                0.7359377145767212,
                -3.725290298461914e-09
            ]
        },
        {
            "children" : [
                16
            ],
            "name" : "Thigh.R",
            "rotation" : [
                -0.9954743981361389,
                0.07013959437608719,
                0.05659732595086098,
                0.030133835971355438
            ],
            "scale" : [
                0.999994158744812,
                0.9999999403953552,
                0.9999992847442627
            ],
            "translation" : [
                -0.20841354131698608,
                -0.10463853180408478,
                -0.005247264634817839
            ]
        },
        {
            "children" : [
                11,
                14,
                17
            ],
            "name" : "Hip",
            "rotation" : [
                -0.0235981997102499,
                3.117616142844781e-05,
                0.001321211806498468,
                0.9997207522392273
            ],
            "scale" : [
                0.9999999403953552,
                0.9999999403953552,
                0.9999999403953552
            ],
            "translation" : [
                0.0002881417458411306,
                1.8386157751083374,
                0.02228960208594799
            ]
        },
        {
            "mesh" : 0,
            "name" : "Mesh_Hands_CorruptGloves",
            "skin" : 0
        },
        {
            "children" : [
                19,
                18
            ],
            "name" : "Armature"
        }
    ],
    "materials" : [
        {
            "doubleSided" : true,
            "name" : "Palette",
            "pbrMetallicRoughness" : {}
        }
    ],
    "meshes" : [
        {
            "name" : "Cube.096",
            "primitives" : [
                {
                    "attributes" : {
                        "POSITION" : 0,
                        "NORMAL" : 1,
                        "TEXCOORD_0" : 2,
                        "TEXCOORD_1" : 3,
                        "COLOR_0" : 4,
                        "JOINTS_0" : 5,
                        "WEIGHTS_0" : 6
                    },
                    "indices" : 7,
                    "material" : 0
                }
            ]
        }
    ],
    "skins" : [
        {
            "inverseBindMatrices" : 8,
            "joints" : [
                18,
                11,
                10,
                1,
                0,
                5,
                4,
                3,
                2,
                9,
                8,
                7,
                6,
                14,
                13,
                12,
                17,
                16,
                15
            ],
            "name" : "Armature"
        }
    ],
    "accessors" : [
        {
            "bufferView" : 0,
            "componentType" : 5126,
            "count" : 204,
            "max" : [
                1.5397275686264038,
                2.8892335891723633,
                0.1379438042640686
            ],
            "min" : [
                -1.5397275686264038,
                2.7043473720550537,
                -0.07266528904438019
            ],
            "type" : "VEC3"
        },
        {
            "bufferView" : 1,
            "componentType" : 5126,
            "count" : 204,
            "type" : "VEC3"
        },
        {
            "bufferView" : 2,
            "componentType" : 5126,
            "count" : 204,
            "type" : "VEC2"
        },
        {
            "bufferView" : 3,
            "componentType" : 5126,
            "count" : 204,
            "type" : "VEC2"
        },
        {
            "bufferView" : 4,
            "componentType" : 5126,
            "count" : 204,
            "type" : "VEC4"
        },
        {
            "bufferView" : 5,
            "componentType" : 5123,
            "count" : 204,
            "type" : "VEC4"
        },
        {
            "bufferView" : 6,
            "componentType" : 5126,
            "count" : 204,
            "type" : "VEC4"
        },
        {
            "bufferView" : 7,
            "componentType" : 5123,
            "count" : 744,
            "type" : "SCALAR"
        },
        {
            "bufferView" : 8,
            "componentType" : 5126,
            "count" : 19,
            "type" : "MAT4"
        }
    ],
    "bufferViews" : [
        {
            "buffer" : 0,
            "byteLength" : 2448,
            "byteOffset" : 0
        },
        {
            "buffer" : 0,
            "byteLength" : 2448,
            "byteOffset" : 2448
        },
        {
            "buffer" : 0,
            "byteLength" : 1632,
            "byteOffset" : 4896
        },
        {
            "buffer" : 0,
            "byteLength" : 1632,
            "byteOffset" : 6528
        },
        {
            "buffer" : 0,
            "byteLength" : 3264,
            "byteOffset" : 8160
        },
        {
            "buffer" : 0,
            "byteLength" : 1632,
            "byteOffset" : 11424
        },
        {
            "buffer" : 0,
            "byteLength" : 3264,
            "byteOffset" : 13056
        },
        {
            "buffer" : 0,
            "byteLength" : 1488,
            "byteOffset" : 16320
        },
        {
            "buffer" : 0,
            "byteLength" : 1216,
            "byteOffset" : 17808
        }
    ],
    "buffers" : [
        {
            "byteLength" : 19024,
            "uri" : "data:application/octet-stream;base64,"
        }
    ]
}
