{
    "asset" : {
        "generator" : "Khronos glTF Blender I/O v1.3.48",
        "version" : "2.0"
    },
    "scene" : 0,
    "scenes" : [
        {
            "name" : "Scene",
            "nodes" : [
                0
            ]
        }
    ],
    "nodes" : [
        {
            "mesh" : 0,
            "name" : "Mesh_Legs_CorruptLegs",
            "translation" : [
                -0.014940261840820312,
                0,
                0
            ]
        }
    ],
    "materials" : [
        {
            "doubleSided" : true,
            "name" : "Palette",
            "pbrMetallicRoughness" : {}
        }
    ],
    "meshes" : [
        {
            "name" : "Cube.092",
            "primitives" : [
                {
                    "attributes" : {
                        "POSITION" : 0,
                        "NORMAL" : 1,
                        "TEXCOORD_0" : 2
                    },
                    "indices" : 3,
                    "material" : 0
                }
            ]
        }
    ],
    "accessors" : [
        {
            "bufferView" : 0,
            "componentType" : 5126,
            "count" : 1146,
            "max" : [
                0.5033023357391357,
                2.064829111099243,
                0.39673736691474915
            ],
            "min" : [
                -0.5033023357391357,
                0.4681525230407715,
                -0.2572918236255646
            ],
            "type" : "VEC3"
        },
        {
            "bufferView" : 1,
            "componentType" : 5126,
            "count" : 1146,
            "type" : "VEC3"
        },
        {
            "bufferView" : 2,
            "componentType" : 5126,
            "count" : 1146,
            "type" : "VEC2"
        },
        {
            "bufferView" : 3,
            "componentType" : 5123,
            "count" : 2940,
            "type" : "SCALAR"
        }
    ],
    "bufferViews" : [
        {
            "buffer" : 0,
            "byteLength" : 13752,
            "byteOffset" : 0
        },
        {
            "buffer" : 0,
            "byteLength" : 13752,
            "byteOffset" : 13752
        },
        {
            "buffer" : 0,
            "byteLength" : 9168,
            "byteOffset" : 27504
        },
        {
            "buffer" : 0,
            "byteLength" : 5880,
            "byteOffset" : 36672
        }
    ],
    "buffers" : [
        {
            "byteLength" : 42552,
            "uri" : "data:application/octet-stream;base64,"
        }
    ]
}
